if (_typeface_js && _typeface_js.loadFace) _typeface_js.loadFace({"glyphs":{"0":{"ha":13,"x_min":0,"x_max":0,"o":""},"1":{"ha":13,"x_min":0,"x_max":0,"o":""},"2":{"ha":13,"x_min":0,"x_max":0,"o":""},"3":{"ha":13,"x_min":0,"x_max":0,"o":""},"4":{"ha":13,"x_min":0,"x_max":0,"o":""},"5":{"ha":13,"x_min":0,"x_max":0,"o":""},"6":{"ha":13,"x_min":0,"x_max":0,"o":""},"7":{"ha":13,"x_min":0,"x_max":0,"o":""},"8":{"ha":13,"x_min":0,"x_max":0,"o":""},"9":{"ha":13,"x_min":0,"x_max":0,"o":""}," ":{"ha":583,"x_min":0,"x_max":0,"o":""},"!":{"ha":13,"x_min":0,"x_max":0,"o":""},"\"":{"ha":13,"x_min":0,"x_max":0,"o":""},"#":{"ha":13,"x_min":0,"x_max":0,"o":""},"$":{"ha":13,"x_min":0,"x_max":0,"o":""},"%":{"ha":13,"x_min":0,"x_max":0,"o":""},"&":{"ha":13,"x_min":0,"x_max":0,"o":""},"(":{"ha":13,"x_min":0,"x_max":0,"o":""},")":{"ha":13,"x_min":0,"x_max":0,"o":""},"*":{"ha":13,"x_min":0,"x_max":0,"o":""},"+":{"ha":13,"x_min":0,"x_max":0,"o":""},",":{"ha":13,"x_min":0,"x_max":0,"o":""},"-":{"ha":13,"x_min":0,"x_max":0,"o":""},".":{"ha":13,"x_min":0,"x_max":0,"o":""},"/":{"ha":13,"x_min":0,"x_max":0,"o":""},":":{"ha":13,"x_min":0,"x_max":0,"o":""},";":{"ha":13,"x_min":0,"x_max":0,"o":""},"<":{"ha":13,"x_min":0,"x_max":0,"o":""},"=":{"ha":13,"x_min":0,"x_max":0,"o":""},">":{"ha":13,"x_min":0,"x_max":0,"o":""},"?":{"ha":13,"x_min":0,"x_max":0,"o":""},"@":{"ha":13,"x_min":0,"x_max":0,"o":""},"A":{"ha":843,"x_min":-7,"x_max":833,"o":"m 240 1086 q 236 1019 232 1075 q 256 904 240 964 q 294 606 288 754 q 273 458 297 506 q 149 321 249 411 q 17 132 -6 189 q 76 81 35 81 q 231 128 118 81 q 326 185 307 160 q 333 271 344 211 q 328 295 331 286 q 326 315 326 304 q 327 330 326 325 q 333 342 328 335 q 342 351 338 349 q 358 356 346 353 q 380 360 369 360 q 410 362 390 361 q 449 363 431 363 q 497 364 467 364 l 707 364 q 730 329 718 365 q 750 239 742 293 q 765 176 756 204 q 784 134 774 149 q 803 121 794 119 q 817 133 811 124 q 826 155 824 142 q 830 185 829 168 q 828 221 831 203 q 815 563 815 310 q 825 897 814 817 q 822 969 833 951 q 764 986 810 986 q 694 1001 731 989 q 640 1029 658 1014 q 552 1066 615 1049 q 424 1092 489 1083 q 304 1101 358 1101 q 240 1086 250 1100 m 579 947 q 593 906 596 932 q 578 855 590 881 q 543 810 565 829 q 497 790 521 790 q 444 811 460 790 q 429 880 429 832 q 444 948 429 928 q 493 968 458 968 q 529 965 511 968 q 560 958 547 963 q 579 947 574 953 m 615 599 q 628 499 650 547 q 543 442 607 450 q 475 453 501 433 q 429 524 449 472 q 410 601 414 563 q 415 651 407 640 q 511 663 435 683 q 615 599 588 642 "},"B":{"ha":1176,"x_min":-1,"x_max":1164,"o":"m 440 997 q 368 952 406 971 q 313 933 331 933 q 244 906 294 933 q 142 840 193 878 q 31 706 63 779 q 22 571 0 633 q 117 478 44 508 l 217 435 q 21 469 122 453 l 21 -29 l 1164 -29 q 1142 488 1153 231 l 993 492 q 931 494 963 492 q 877 500 900 496 q 838 508 854 504 q 818 517 822 513 q 818 569 797 538 q 885 624 839 600 q 979 649 932 649 q 1056 654 1025 649 q 1108 674 1086 660 q 1141 712 1131 689 q 1155 768 1151 735 q 1153 847 1158 801 q 1150 884 1151 871 q 1146 914 1149 897 q 1142 938 1143 931 q 1135 955 1140 944 q 1125 969 1129 965 q 1111 977 1121 972 q 1094 983 1101 982 q 1070 987 1086 985 q 1041 989 1054 989 q 1003 990 1028 989 q 959 994 981 992 q 919 1000 938 996 q 885 1009 900 1004 q 858 1020 869 1014 q 843 1033 847 1026 q 746 1064 826 1060 q 574 1049 665 1068 q 440 997 483 1029 m 918 826 q 963 810 944 826 q 982 769 982 793 q 894 717 982 721 q 717 749 806 713 q 626 833 628 785 q 651 856 626 846 q 709 869 676 865 q 775 870 742 874 q 822 854 808 867 q 864 835 836 843 q 918 826 892 826 m 451 424 q 546 317 517 374 q 544 190 588 236 q 376 185 494 136 q 233 278 260 233 q 256 392 207 322 q 346 465 301 458 q 451 424 390 472 "},"C":{"ha":1149,"x_min":14,"x_max":1136,"o":"m 121 1043 q 67 1007 82 1021 q 38 976 53 993 q 19 913 22 960 q 15 821 17 865 q 14 663 14 776 q 28 442 15 535 q 70 276 40 349 q 146 157 100 203 q 262 83 192 111 q 422 44 332 54 q 633 39 511 35 q 828 35 744 42 q 918 14 911 28 q 962 -6 926 -1 q 1039 -4 997 -11 q 1101 17 1082 4 q 1128 53 1121 29 q 1136 128 1136 78 q 1090 254 1136 196 q 971 340 1043 313 q 829 349 899 367 q 703 339 792 339 q 526 349 615 339 q 458 356 481 354 q 406 364 435 358 q 367 373 378 369 q 340 387 356 376 q 320 404 325 397 q 306 431 315 411 q 293 465 297 450 q 281 510 289 479 q 311 767 236 671 q 556 863 386 863 q 769 983 658 863 l 883 1100 l 556 1104 q 275 1091 368 1104 q 121 1043 182 1078 "},"D":{"ha":1190,"x_min":4,"x_max":1181,"o":"m 918 979 q 740 758 838 886 q 655 693 704 715 q 526 663 606 671 q 461 653 496 660 q 395 636 426 646 q 336 615 364 626 q 290 592 308 603 q 217 558 251 569 q 167 556 182 547 q 127 564 153 564 q 78 556 101 564 q 19 427 35 540 q 23 191 4 314 q 85 29 42 68 q 161 -11 131 -10 q 274 21 192 -12 q 381 59 325 42 q 487 86 438 76 q 576 99 536 96 q 638 97 615 103 q 661 78 661 92 q 692 43 664 36 q 768 160 732 64 q 854 324 831 294 q 877 385 869 342 q 882 474 885 429 q 890 604 876 517 q 928 772 904 692 q 992 935 961 883 q 1067 1004 1022 986 q 1088 1013 1078 1008 q 1178 1083 1175 1050 q 1117 1111 1181 1111 q 1025 1076 1079 1111 q 918 979 971 1040 m 447 399 q 478 363 482 378 q 429 317 475 349 q 374 286 401 296 q 283 299 310 265 q 313 392 256 335 q 372 431 350 429 q 447 399 393 433 m 1057 822 q 986 682 985 707 q 1050 674 988 657 q 1108 715 1082 681 q 1142 797 1135 750 q 1143 919 1168 913 q 1057 822 1118 925 "},"E":{"ha":1007,"x_min":8,"x_max":1017,"o":"m 136 1011 q 56 885 79 951 q 22 681 33 819 q 18 472 8 531 q 76 353 28 414 q 140 291 107 313 q 190 278 174 269 q 212 284 208 288 q 204 264 215 281 q 243 197 181 224 q 503 182 338 158 q 753 270 647 206 q 860 399 860 335 q 814 465 860 432 q 696 520 768 499 q 553 542 624 542 q 510 546 531 542 q 479 556 490 550 q 468 569 468 563 q 524 584 468 583 q 656 574 579 585 q 867 580 803 554 q 931 681 931 606 q 943 735 931 704 q 974 783 956 765 q 976 826 1015 826 q 933 868 961 826 q 881 968 904 910 l 824 1111 l 528 1111 q 388 1109 436 1111 q 297 1103 339 1107 q 231 1086 256 1099 q 187 1058 207 1074 q 136 1011 167 1043 m 503 772 l 500 764 q 468 790 490 756 q 432 879 432 847 q 435 889 432 888 q 468 863 444 899 q 503 772 503 804 "},"F":{"ha":949,"x_min":14,"x_max":942,"o":"m 281 1036 q 228 947 271 1003 q 135 840 186 892 q 85 794 101 810 q 51 751 68 778 q 30 708 35 725 q 20 648 25 690 q 15 569 15 606 q 14 456 14 532 q 24 265 14 331 q 128 285 46 108 q 173 349 150 331 q 237 377 196 368 q 369 392 278 386 q 525 414 451 397 q 619 449 599 431 q 674 488 642 468 q 726 513 706 508 q 672 585 779 529 q 511 619 590 624 q 401 567 432 614 q 372 542 390 547 q 335 546 353 538 q 300 571 317 554 q 273 613 283 588 q 263 665 263 638 q 274 729 263 703 q 299 756 285 756 q 324 766 314 756 q 335 790 335 776 q 406 897 335 825 q 508 968 476 968 q 550 985 522 968 q 601 1025 578 1003 q 659 1066 639 1065 q 719 1029 679 1067 q 785 985 743 1008 q 861 951 826 961 q 929 945 918 935 q 933 1011 940 956 q 880 1083 925 1069 q 613 1104 835 1096 q 524 1107 557 1106 q 455 1109 490 1108 q 401 1108 419 1110 q 362 1105 382 1107 q 332 1099 342 1103 q 313 1090 322 1094 q 298 1076 303 1085 q 289 1058 293 1067 q 281 1036 285 1050 m 14 50 q 23 -31 14 1 q 46 -64 32 -64 q 67 -38 60 -64 q 71 25 74 -12 q 69 38 71 32 q 35 138 57 136 q 14 50 14 138 "},"G":{"ha":13,"x_min":0,"x_max":0,"o":""},"H":{"ha":932,"x_min":8,"x_max":922,"o":"m 97 1033 q 93 926 76 953 q 110 842 101 911 q 118 699 118 774 q 110 530 124 590 q 61 431 97 469 q 18 349 26 393 q 22 221 10 304 q 46 140 31 172 q 86 101 67 97 q 100 196 114 107 q 118 265 94 242 q 214 314 142 289 q 309 364 263 329 q 371 431 356 399 q 448 496 390 474 q 556 506 506 518 q 606 453 606 494 q 612 428 606 442 q 627 403 618 415 q 649 378 636 390 q 678 356 663 365 q 736 285 710 335 q 774 178 763 236 q 803 73 785 103 q 858 43 822 43 q 894 49 882 43 q 914 76 907 56 q 920 127 921 97 q 910 213 919 157 q 885 335 900 268 q 844 506 869 403 l 767 804 l 614 808 q 501 803 551 811 q 442 783 451 794 q 430 773 439 778 q 409 764 421 768 q 383 758 397 760 q 353 756 368 756 q 306 775 317 756 q 382 1015 282 818 l 432 1111 l 271 1111 q 141 1096 175 1111 q 97 1033 107 1081 m 168 232 q 151 194 157 224 q 147 135 144 164 q 149 96 147 106 q 153 86 149 85 q 182 146 158 88 q 206 232 207 204 q 168 232 203 267 "},"I":{"ha":597,"x_min":14,"x_max":586,"o":"m 288 1075 q 301 1039 281 1063 q 360 997 322 1015 q 498 985 433 965 q 583 1068 563 1004 q 579 1083 585 1076 q 435 1113 553 1114 q 288 1075 310 1111 m 164 833 q 143 772 164 807 q 92 708 122 736 q 42 640 57 679 q 20 523 26 601 q 14 274 14 444 q 15 166 14 206 q 19 93 15 126 q 26 45 22 60 q 41 21 31 31 q 62 9 51 11 q 92 7 72 7 q 144 24 124 7 q 167 71 164 42 q 185 289 167 75 q 188 420 196 379 q 149 478 181 461 q 97 542 108 500 q 108 625 86 583 q 178 688 131 667 q 235 728 210 701 q 286 844 289 785 q 231 897 283 897 q 182 880 200 897 q 164 833 164 863 "},"J":{"ha":13,"x_min":0,"x_max":0,"o":""},"K":{"ha":13,"x_min":0,"x_max":0,"o":""},"L":{"ha":1014,"x_min":0,"x_max":1001,"o":"m 168 1058 q 139 1020 160 1036 q 96 1004 118 1004 q 22 965 43 1004 q 32 886 0 926 q 176 640 101 800 q 239 446 250 481 q 238 409 228 415 q 289 417 249 403 q 339 423 318 428 q 360 402 360 418 q 344 375 360 386 q 307 364 328 364 q 281 354 286 364 q 325 214 269 335 q 376 119 349 157 q 441 56 403 82 q 527 15 479 29 q 644 -7 575 1 q 869 -46 719 -18 l 1001 -71 l 1001 71 q 949 256 1001 201 q 819 264 897 311 q 637 222 739 213 q 503 292 535 231 q 478 365 486 325 q 474 431 469 406 q 470 490 479 457 q 442 544 461 524 q 431 738 401 596 q 431 890 465 879 q 413 904 421 894 q 400 927 404 914 q 396 954 396 940 q 386 990 396 976 q 360 1004 376 1004 q 335 1020 346 1004 q 325 1058 325 1036 q 311 1092 325 1078 q 277 1109 297 1106 q 235 1109 257 1113 q 195 1092 214 1106 q 168 1058 176 1078 "},"M":{"ha":13,"x_min":0,"x_max":0,"o":""},"N":{"ha":1107,"x_min":10,"x_max":1101,"o":"m 199 1058 q 175 1014 169 1024 q 226 1004 181 1004 q 276 995 256 1004 q 297 972 297 986 q 263 953 297 957 q 175 958 228 949 q 74 986 122 968 q 61 990 67 989 q 24 963 33 999 q 17 526 11 908 l 24 43 l 176 43 q 241 43 221 43 q 283 49 261 43 q 313 60 306 54 q 329 84 319 65 q 342 119 339 103 q 351 175 344 136 q 404 435 369 299 q 458 658 444 585 q 474 707 464 686 q 583 753 508 782 q 736 581 667 721 q 792 415 792 465 q 736 331 792 365 q 695 296 699 310 q 718 264 692 282 q 739 139 767 231 q 744 55 724 67 q 900 43 765 43 q 991 45 949 43 q 1058 50 1033 47 q 1082 57 1082 53 q 1032 168 1082 74 q 999 301 994 239 q 1046 364 1003 364 q 1092 450 1083 364 q 1074 638 1101 536 q 1025 879 1053 725 q 997 968 1019 924 q 950 1029 974 1013 q 853 1057 924 1049 q 706 1062 783 1065 q 559 1044 629 1058 q 465 1008 489 1029 q 411 993 439 986 q 340 1040 383 1000 q 328 1051 336 1044 q 297 1081 306 1072 q 275 1097 288 1089 q 258 1104 263 1104 q 244 1099 254 1104 q 227 1088 233 1094 q 206 1065 221 1082 q 199 1058 200 1060 m 821 756 q 856 703 829 724 q 914 683 882 683 q 947 681 933 683 q 964 663 979 674 q 846 663 949 642 q 807 676 825 668 q 775 708 760 697 q 778 738 783 717 q 757 781 774 758 q 735 817 733 807 q 761 826 736 826 q 783 817 771 826 q 806 790 796 807 q 821 756 817 774 "},"O":{"ha":1347,"x_min":14,"x_max":1336,"o":"m 14 153 l 132 46 q 254 -37 197 -14 q 394 -64 311 -61 q 476 -61 450 -64 q 522 -47 503 -58 q 549 -17 542 -35 q 563 39 556 1 q 607 141 574 83 q 676 235 640 199 q 751 295 717 276 q 835 321 786 314 q 975 328 885 328 q 1100 333 1053 328 q 1172 349 1147 338 q 1207 381 1197 361 q 1224 408 1213 396 q 1251 427 1235 419 q 1282 435 1267 435 q 1308 447 1299 435 q 1324 492 1318 458 q 1333 583 1331 526 q 1335 733 1335 639 q 1293 1068 1335 1031 q 1083 1094 1271 1082 q 638 1107 894 1106 l 28 1111 q 14 153 21 639 m 872 813 q 938 765 910 796 q 972 706 967 735 q 967 658 981 665 q 900 665 954 650 q 671 764 776 703 q 553 867 560 828 q 663 879 546 904 q 872 813 792 853 m 363 499 q 356 488 358 489 q 344 542 344 483 q 346 572 344 560 q 363 588 350 613 q 368 542 368 569 q 363 499 368 515 "},"P":{"ha":632,"x_min":14,"x_max":619,"o":"m 14 758 q 24 472 14 546 q 67 385 35 399 q 146 428 124 368 q 272 582 164 481 q 417 683 379 683 q 503 734 454 683 q 585 858 551 785 q 619 990 619 932 l 619 1111 l 14 1111 l 14 758 m 324 1033 q 374 1010 347 1022 q 416 992 400 999 q 435 983 432 985 q 426 926 451 975 q 352 823 400 878 q 263 744 304 768 q 247 735 256 739 q 107 685 150 679 q 132 733 74 689 q 172 780 169 764 q 146 822 175 796 q 105 935 100 860 q 160 1043 110 1011 q 171 1051 164 1046 q 219 1072 204 1072 q 296 1044 235 1071 q 324 1033 314 1038 m 14 168 q 22 28 14 85 q 43 -29 29 -29 q 79 24 60 -29 q 110 142 99 78 q 122 266 122 207 q 107 335 122 325 q 39 353 57 368 q 14 168 14 332 "},"Q":{"ha":13,"x_min":0,"x_max":0,"o":""},"R":{"ha":971,"x_min":14,"x_max":964,"o":"m 321 1079 q 314 1035 310 1063 q 335 979 318 1007 q 353 899 358 940 q 313 772 349 857 q 242 613 246 626 q 169 442 210 519 q 114 364 129 364 q 94 347 103 364 q 85 310 85 331 q 75 272 85 288 q 50 257 65 257 q 25 213 36 257 q 14 110 14 168 q 21 10 14 35 q 60 4 29 -25 q 107 69 81 19 q 149 175 133 119 q 251 363 175 257 q 407 537 326 468 q 524 592 488 606 q 564 546 553 581 q 569 442 575 511 q 605 206 558 343 q 704 36 651 68 q 765 21 721 25 q 851 21 808 17 q 890 29 872 24 q 958 97 963 49 q 815 242 951 165 q 771 267 793 254 q 733 291 749 281 q 704 310 717 301 q 685 325 692 319 q 679 331 679 331 q 716 479 713 401 q 690 576 719 557 q 643 658 658 597 q 637 778 628 719 q 676 854 646 838 q 719 990 731 888 q 714 1031 717 1017 q 702 1060 711 1046 q 683 1079 693 1074 q 649 1091 674 1085 q 598 1099 624 1097 q 524 1104 572 1101 q 390 1101 451 1110 q 321 1079 329 1093 m 640 1025 q 628 940 653 997 q 560 838 603 883 q 488 790 518 792 q 455 809 468 790 q 442 854 442 828 q 429 913 442 882 q 399 961 417 943 q 385 1002 375 986 q 444 1036 394 1018 q 582 1071 539 1074 q 640 1025 625 1068 "},"S":{"ha":872,"x_min":4,"x_max":883,"o":"m 511 1075 q 440 1024 476 1061 q 356 867 372 951 q 393 790 340 790 q 419 806 410 790 q 429 844 429 822 q 438 881 429 865 q 458 897 447 897 q 501 928 471 897 q 564 1004 531 958 q 618 1100 628 1088 q 511 1075 608 1113 m 251 1004 q 235 968 240 985 q 232 942 231 951 q 240 933 233 933 q 275 953 254 933 q 315 1004 296 974 l 329 1031 q 322 1075 349 1075 q 288 1054 310 1075 q 251 1004 267 1033 m 607 897 q 636 873 607 883 q 707 863 665 863 q 763 865 749 863 q 750 897 789 871 q 651 932 696 932 q 607 897 607 932 m 222 765 q 229 713 225 733 q 240 672 233 692 q 260 640 246 653 q 290 614 274 626 q 337 590 307 601 q 399 569 367 579 q 483 544 431 558 q 669 500 600 514 q 783 486 739 486 q 842 499 826 486 q 857 542 857 513 q 848 597 857 576 q 813 633 839 618 q 746 653 788 647 q 636 663 704 660 q 576 669 606 664 q 526 681 547 674 q 490 696 504 688 q 472 713 475 704 q 456 735 468 725 q 427 750 444 744 q 390 756 410 756 q 342 769 363 756 q 322 804 322 783 q 319 822 322 814 q 312 839 317 831 q 300 854 307 847 q 284 867 293 861 q 265 876 275 874 q 240 881 250 882 q 224 867 229 881 q 219 831 219 854 q 222 765 218 807 m 664 374 q 635 361 644 368 q 625 347 625 354 q 636 331 625 339 q 638 325 640 328 q 490 307 618 307 q 67 264 225 300 q 20 184 36 256 q 24 64 4 113 q 94 18 36 29 q 319 7 153 7 q 472 9 411 7 q 585 17 533 11 q 669 33 638 24 q 728 60 701 43 q 771 99 754 78 q 803 153 788 121 q 850 358 883 306 q 664 374 817 411 "},"T":{"ha":561,"x_min":6,"x_max":557,"o":"m 346 1050 q 346 940 340 986 q 335 885 349 918 q 296 826 321 853 q 256 760 272 800 q 243 694 240 721 q 241 542 257 576 q 161 524 225 507 q 33 494 78 546 q 19 447 7 460 q 100 417 31 433 q 233 335 183 397 q 275 192 283 272 q 281 21 264 71 q 350 -29 297 -29 q 357 -29 351 -29 q 417 -14 414 -29 q 375 92 419 1 q 371 100 372 97 q 342 306 315 213 q 464 431 368 399 q 545 472 533 456 q 528 524 557 489 q 478 561 496 561 q 421 524 461 561 q 338 474 363 469 q 314 542 314 478 q 318 577 314 561 q 331 603 322 593 q 350 613 339 613 q 363 622 357 613 q 374 647 369 632 q 381 685 378 663 q 382 731 383 707 q 400 958 376 819 q 408 1044 411 1006 q 385 1093 404 1083 q 358 1089 371 1101 q 346 1050 346 1076 "},"U":{"ha":760,"x_min":14,"x_max":750,"o":"m 544 993 q 522 974 533 985 q 458 828 469 913 q 492 756 450 756 q 594 733 538 756 q 651 743 621 725 q 708 801 682 761 q 747 889 746 857 q 719 965 749 921 q 642 1035 679 1029 q 544 993 606 1042 m 508 574 q 488 314 501 356 q 413 264 475 272 q 296 304 350 253 q 174 488 242 356 q 130 541 158 518 q 75 569 101 564 q 44 569 54 574 q 26 544 33 565 q 16 485 18 522 q 14 381 14 447 q 15 304 14 332 q 23 247 15 276 q 38 202 31 217 q 69 170 46 188 q 114 146 92 153 q 183 130 136 139 q 274 116 229 121 q 394 103 318 111 q 516 92 476 94 q 589 96 556 90 q 638 115 622 101 q 672 157 653 128 q 722 390 747 268 q 576 608 696 513 q 522 635 533 642 q 508 574 511 629 m 263 257 q 258 232 263 243 q 249 221 254 221 q 230 232 242 221 q 210 257 218 243 q 206 282 201 272 q 224 292 210 292 q 251 282 240 292 q 263 257 263 272 "},"V":{"ha":932,"x_min":14,"x_max":933,"o":"m 53 1082 q 26 1017 38 1078 q 14 872 14 957 l 14 676 l 103 733 q 206 790 185 790 q 210 749 215 785 q 187 668 204 714 q 157 613 169 622 q 103 504 121 585 q 117 435 90 435 q 145 424 133 435 q 157 399 157 414 q 140 381 157 386 q 103 385 124 376 q 65 393 78 394 q 89 289 32 392 q 107 222 107 249 q 85 168 107 194 q 65 111 64 142 q 89 29 67 81 q 171 -51 115 -28 q 291 -58 226 -74 q 406 7 356 -43 q 499 208 449 50 q 549 456 549 367 q 567 465 549 461 q 613 469 586 469 q 690 515 639 469 q 786 624 742 560 q 915 839 897 781 q 872 897 933 897 q 808 918 846 897 q 744 968 771 939 q 689 1021 713 1003 q 619 986 619 1069 q 599 949 619 965 q 549 933 578 933 q 494 920 500 933 q 517 858 489 907 q 537 758 538 813 q 512 646 536 703 q 453 542 488 589 q 373 465 419 494 q 281 435 326 435 q 260 488 261 435 q 274 603 258 542 q 313 681 290 664 q 344 729 335 699 q 344 783 353 760 q 348 824 342 801 q 369 871 354 847 q 401 911 383 894 q 440 955 424 931 q 467 1003 457 979 q 476 1047 476 1028 q 464 1088 476 1076 q 409 1105 451 1100 q 285 1104 367 1110 q 53 1082 97 1097 m 353 257 q 357 232 361 243 q 338 221 353 221 q 307 232 325 221 q 281 257 289 243 q 296 292 263 292 q 327 282 310 292 q 353 257 344 272 "},"W":{"ha":13,"x_min":0,"x_max":0,"o":""},"X":{"ha":13,"x_min":0,"x_max":0,"o":""},"Y":{"ha":13,"x_min":0,"x_max":0,"o":""},"Z":{"ha":13,"x_min":0,"x_max":0,"o":""},"[":{"ha":13,"x_min":0,"x_max":0,"o":""},"]":{"ha":13,"x_min":0,"x_max":0,"o":""},"a":{"ha":13,"x_min":0,"x_max":0,"o":""},"b":{"ha":13,"x_min":0,"x_max":0,"o":""},"c":{"ha":13,"x_min":0,"x_max":0,"o":""},"d":{"ha":13,"x_min":0,"x_max":0,"o":""},"e":{"ha":13,"x_min":0,"x_max":0,"o":""},"f":{"ha":13,"x_min":0,"x_max":0,"o":""},"g":{"ha":726,"x_min":13,"x_max":719,"o":"m 164 986 q 97 899 132 936 q 50 863 63 863 q 31 838 39 863 q 18 774 22 814 q 14 683 14 733 q 15 622 14 646 q 17 577 15 599 q 23 544 18 556 q 33 524 28 533 q 50 512 39 515 q 72 507 61 508 q 103 506 83 506 q 173 488 138 506 q 224 446 208 469 q 235 426 231 433 q 244 415 239 419 q 252 408 249 410 q 260 408 256 406 q 267 415 264 410 q 275 428 271 419 q 284 449 279 438 q 296 478 289 460 q 393 587 322 549 q 513 594 464 625 q 537 551 526 586 q 544 478 547 515 q 544 431 544 443 q 542 408 543 419 q 536 405 542 396 q 525 424 531 414 q 506 463 519 433 q 468 519 489 496 q 435 542 447 542 q 419 501 417 536 q 440 423 421 467 q 476 371 458 379 q 481 278 508 357 q 399 143 454 199 q 281 82 338 81 q 185 150 225 83 q 134 200 167 179 q 75 221 101 221 q 24 194 35 221 q 21 86 13 168 l 32 -46 l 263 -57 q 408 -62 356 -61 q 510 -56 461 -62 q 583 -40 560 -50 q 629 -7 607 -31 q 662 45 651 17 q 683 121 672 74 q 713 348 718 275 q 658 456 708 421 q 625 505 624 482 q 665 592 626 528 q 709 687 708 656 q 672 790 710 718 q 624 863 649 836 q 588 883 600 889 q 515 920 565 869 q 410 1061 465 971 l 394 1083 q 374 1107 378 1107 q 381 1050 369 1106 q 381 987 392 1006 q 335 968 371 968 q 288 984 299 968 q 288 1040 278 1000 q 278 1108 307 1111 q 164 986 240 1104 m 353 901 q 351 877 357 892 q 332 846 346 863 q 299 815 318 829 q 256 775 269 797 q 253 744 242 753 q 256 726 261 733 q 235 719 250 719 q 172 766 179 719 q 214 865 165 813 q 296 931 264 922 q 353 901 328 939 m 463 758 q 427 733 453 743 q 378 724 401 724 q 335 729 335 725 q 378 744 335 733 q 417 819 438 761 q 408 858 403 854 q 442 838 414 861 q 465 797 460 821 q 463 758 471 774 m 263 346 q 242 294 244 324 q 253 242 239 264 q 292 221 268 221 q 370 261 340 224 q 385 339 400 299 q 334 396 363 394 q 263 346 306 397 "},"h":{"ha":13,"x_min":0,"x_max":0,"o":""},"i":{"ha":13,"x_min":0,"x_max":0,"o":""},"j":{"ha":13,"x_min":0,"x_max":0,"o":""},"k":{"ha":863,"x_min":11,"x_max":861,"o":"m 175 883 q 96 718 135 788 q 43 649 57 649 q 20 547 28 649 q 14 292 13 444 q 28 16 17 96 q 64 -64 40 -64 q 128 18 110 -64 q 133 215 147 100 q 75 421 118 331 q 74 526 54 464 q 171 731 93 588 q 260 919 225 826 q 289 1043 294 1011 q 278 1064 286 1064 q 175 883 256 1065 m 631 954 q 470 862 533 919 q 410 751 407 804 q 401 619 415 661 q 353 576 388 576 q 313 545 333 576 q 285 469 293 514 q 255 392 272 408 q 200 388 238 375 q 155 399 157 404 q 186 353 153 393 q 215 323 197 338 q 251 300 233 308 q 282 292 269 292 q 317 281 303 292 q 332 257 332 271 q 439 107 332 226 q 514 22 482 64 q 546 -32 546 -21 q 562 -55 546 -46 q 603 -64 578 -64 q 642 -4 664 -64 q 492 410 594 153 q 473 535 471 467 q 498 662 475 604 q 553 719 521 719 q 572 736 564 719 q 581 776 581 753 q 590 808 581 797 q 610 813 599 819 q 695 830 631 799 q 810 906 760 861 q 847 968 860 950 q 785 997 829 1000 q 631 954 740 994 "},"l":{"ha":13,"x_min":0,"x_max":0,"o":""},"m":{"ha":1113,"x_min":14,"x_max":1101,"o":"m 531 879 q 366 795 446 808 q 239 829 286 782 q 185 850 214 854 q 107 813 157 846 q 77 792 88 800 q 55 771 67 785 q 38 747 43 757 q 26 713 32 738 q 19 667 21 688 q 16 603 18 647 q 14 522 14 560 q 14 413 14 483 q 16 251 14 314 q 24 149 18 189 q 38 96 29 110 q 60 86 47 82 q 114 356 103 101 q 115 393 114 375 q 164 613 128 600 q 210 517 189 619 q 267 356 240 397 q 283 311 275 339 q 294 252 290 283 q 299 192 299 221 q 347 33 299 93 q 476 -36 394 -28 q 506 -38 494 -37 q 529 -37 518 -39 q 547 -27 540 -35 q 559 -10 553 -19 q 570 19 565 0 q 578 59 575 38 q 588 114 582 81 q 565 346 610 274 q 533 442 547 375 q 517 574 518 508 l 508 731 l 640 708 q 715 690 678 701 q 783 663 753 678 q 826 633 813 647 q 892 419 886 575 q 847 128 899 264 q 810 -31 804 13 q 940 32 818 -100 q 1028 155 990 86 q 1083 290 1065 224 q 1099 417 1101 357 q 1072 517 1096 478 q 1030 601 1051 547 q 997 701 1008 656 q 899 857 975 788 q 722 947 824 926 q 633 942 678 958 q 531 879 588 925 "},"n":{"ha":13,"x_min":0,"x_max":0,"o":""},"o":{"ha":1111,"x_min":7,"x_max":1103,"o":"m 511 879 q 492 860 503 869 q 469 842 481 850 q 449 831 458 835 q 433 826 439 826 q 246 703 385 826 q 67 503 107 579 q 15 274 7 393 q 92 82 22 154 q 189 15 142 26 q 372 18 236 4 q 584 62 506 28 q 811 203 663 96 q 993 360 936 297 q 1064 485 1050 424 q 1094 643 1086 578 q 1097 760 1103 708 q 1070 844 1090 813 q 1009 896 1050 875 q 913 925 968 917 q 775 933 857 933 q 511 879 560 933 m 885 669 q 896 572 907 603 q 821 485 885 540 q 697 399 717 399 q 630 548 678 399 q 582 758 582 697 q 600 776 582 769 q 647 785 618 783 q 714 783 676 786 q 828 756 796 778 q 885 669 861 735 m 511 446 q 448 335 511 378 q 283 292 385 292 q 246 294 263 292 q 304 526 122 317 q 369 597 350 576 q 408 625 389 617 q 438 624 428 633 q 465 592 447 615 q 498 522 485 564 q 511 446 511 479 m 761 631 q 764 589 761 607 q 796 560 774 544 q 815 576 807 564 q 828 602 824 588 q 832 631 832 617 q 822 674 832 653 q 796 701 813 694 q 786 706 790 706 q 761 631 761 703 m 288 446 q 269 415 276 438 q 263 367 263 392 q 272 333 265 335 q 301 374 281 333 q 325 453 331 425 q 288 446 318 479 "},"p":{"ha":13,"x_min":0,"x_max":0,"o":""},"q":{"ha":13,"x_min":0,"x_max":0,"o":""},"r":{"ha":1090,"x_min":-6,"x_max":1078,"o":"m 258 1079 q 128 1058 168 1069 q 67 1026 88 1047 q 31 958 46 1004 q 38 701 -6 861 q 68 569 56 638 q 81 469 81 500 q 99 411 81 443 q 144 364 118 379 q 181 336 182 342 q 124 346 181 331 q 57 337 67 361 q 56 171 47 313 q 54 24 61 83 q 31 -43 47 -35 q 24 -49 22 -46 q 88 -61 24 -61 q 175 -37 139 -64 q 251 57 211 -11 q 299 160 292 124 q 283 217 306 197 q 279 257 249 254 q 354 217 315 257 q 393 215 374 199 q 436 289 413 232 q 504 399 482 399 q 628 254 524 396 q 786 18 733 113 q 850 -46 813 -28 q 957 -64 888 -64 q 1023 -62 1003 -64 q 1058 -47 1043 -60 q 1075 -16 1072 -35 q 1078 43 1078 3 q 1062 130 1078 110 q 992 150 1046 150 q 922 177 960 150 q 856 244 885 204 q 808 329 828 283 q 788 412 788 375 q 811 469 789 449 q 840 514 832 486 q 839 563 847 542 q 738 604 829 590 q 544 611 647 618 q 401 576 442 604 l 379 561 q 376 542 360 542 q 382 540 379 542 q 361 464 400 529 q 294 399 321 399 q 269 447 279 399 q 256 569 258 494 q 247 682 256 646 q 233 694 240 708 q 226 682 231 688 q 156 650 203 647 q 117 683 117 653 q 304 726 117 738 q 332 726 321 725 q 347 751 363 732 q 351 792 339 765 q 386 840 363 819 q 488 890 424 878 q 610 889 551 901 q 714 842 669 876 q 761 763 758 808 q 782 747 761 706 q 781 797 790 767 q 750 851 771 828 q 725 892 726 879 q 803 890 725 906 q 880 887 863 879 q 893 929 897 894 q 791 1031 881 989 q 565 1085 701 1072 q 258 1079 428 1097 m 226 815 q 167 799 192 781 q 169 858 143 818 q 196 879 178 874 q 231 876 214 885 q 226 815 264 853 m 864 715 q 875 698 864 703 q 900 701 886 693 q 925 721 915 710 q 935 740 935 732 q 925 751 935 746 q 900 756 915 756 q 882 750 890 756 q 869 735 874 744 q 864 715 864 726 "},"s":{"ha":1044,"x_min":-6,"x_max":1050,"o":"m 764 638 q 810 351 764 544 q 882 139 856 157 q 882 93 928 108 q 858 61 864 85 q 861 14 851 38 q 867 -18 867 -11 q 846 -4 865 -29 q 825 13 839 7 q 714 14 778 35 q 679 -32 660 -3 q 733 -55 688 -46 q 836 -64 779 -64 q 883 -62 863 -64 q 922 -58 904 -61 q 953 -49 939 -54 q 978 -35 967 -43 q 998 -17 989 -26 q 1014 7 1007 -7 q 1014 78 1049 78 q 989 92 1000 78 q 978 125 978 106 q 963 183 978 142 q 928 260 949 225 q 889 374 910 297 q 857 519 868 450 q 840 602 850 565 q 819 661 831 639 q 796 683 807 683 q 784 680 790 683 q 774 670 778 676 q 767 656 769 664 q 764 638 764 647 m 56 581 q 25 519 29 565 q 35 371 21 472 q 55 260 43 300 q 84 201 67 221 q 131 175 101 182 q 190 185 183 158 q 181 356 197 211 q 167 453 174 414 q 153 523 161 493 q 137 569 146 553 q 115 591 128 585 q 89 594 103 597 q 56 581 75 592 m 38 89 q 41 -41 -4 -18 q 331 -61 86 -64 q 419 -59 382 -60 q 486 -57 456 -58 q 531 -53 517 -56 q 554 -47 546 -50 q 556 -40 563 -44 q 536 -29 549 -35 q 495 -16 524 -24 q 432 1 467 -8 q 347 21 397 10 q 265 51 299 35 q 231 78 231 68 q 217 101 231 92 q 184 116 204 111 q 140 122 164 121 q 96 120 117 124 q 58 109 75 117 q 38 89 42 101 "},"t":{"ha":13,"x_min":0,"x_max":0,"o":""},"u":{"ha":13,"x_min":0,"x_max":0,"o":""},"v":{"ha":13,"x_min":0,"x_max":0,"o":""},"w":{"ha":950,"x_min":7,"x_max":946,"o":"m 68 788 q 73 754 57 771 q 122 731 89 738 q 171 708 164 719 q 154 681 178 696 q 106 673 133 669 q 57 694 78 676 q 28 701 36 713 q 18 446 8 681 q 26 310 22 360 q 40 215 31 260 q 59 148 49 169 q 91 107 69 126 q 138 79 113 88 q 204 61 163 71 q 281 51 263 44 q 300 96 300 58 q 310 138 300 133 q 350 118 319 142 q 585 96 394 78 q 752 131 693 107 q 856 207 811 154 q 937 342 928 285 q 888 421 946 399 q 833 599 833 442 q 826 711 833 669 q 800 750 817 761 q 744 542 767 729 q 711 368 732 425 q 656 292 690 311 q 597 276 618 274 q 560 303 576 279 q 513 356 549 324 q 435 417 476 389 q 418 428 426 422 q 336 514 340 482 q 392 517 333 539 q 413 511 404 511 q 426 515 421 511 q 435 528 432 519 q 439 555 438 538 q 439 594 440 572 q 435 649 438 615 q 415 761 429 713 q 385 815 401 810 q 372 817 378 818 q 300 453 300 808 q 294 321 300 364 q 268 289 286 260 q 247 396 254 310 q 243 585 240 482 q 239 793 249 760 q 171 826 229 826 q 107 815 138 826 q 68 788 76 803 "},"x":{"ha":1094,"x_min":14,"x_max":1083,"o":"m 132 1061 q 83 1046 99 1051 q 51 1027 67 1040 q 30 1005 35 1014 q 20 969 25 996 q 15 917 15 942 q 14 840 14 892 q 15 785 14 807 q 17 742 15 763 q 19 709 18 721 q 25 688 21 697 q 34 674 29 678 q 47 668 39 669 q 64 668 56 667 q 85 674 72 669 q 138 674 119 683 q 157 642 157 665 q 178 585 157 619 q 228 524 199 550 q 263 485 247 506 q 289 448 279 465 q 299 421 299 431 q 251 334 299 389 q 145 240 203 279 q 64 210 88 200 q 24 193 35 221 q 14 82 14 165 l 14 -64 l 192 -64 q 347 -48 304 -64 q 426 25 389 -32 q 460 98 450 61 q 460 150 469 135 q 446 185 439 181 q 599 61 464 194 q 732 -43 681 -22 q 904 -64 783 -64 l 1082 -64 l 1082 203 q 1079 336 1082 274 q 1072 434 1076 399 q 1061 469 1067 469 q 974 431 1044 469 q 839 346 904 392 q 769 285 774 300 q 733 274 758 272 q 682 292 708 276 q 656 324 656 307 q 719 372 656 335 q 868 446 783 408 q 987 501 949 481 q 1049 546 1025 521 q 1078 593 1074 571 q 1082 658 1082 615 q 1070 755 1082 704 q 1043 826 1058 806 q 1005 856 1022 861 q 950 797 988 851 q 788 674 908 736 q 590 613 668 613 q 499 660 553 613 q 408 769 444 708 q 381 863 372 829 q 369 928 386 886 q 321 1008 351 971 q 238 1074 269 1065 q 132 1061 206 1083 m 385 93 q 390 71 389 79 q 369 61 392 50 q 344 85 354 68 q 335 118 335 101 q 344 149 335 146 q 385 93 361 153 m 281 78 q 280 53 289 63 q 249 43 271 43 q 219 48 235 43 q 192 61 204 53 q 174 78 179 69 q 176 104 167 94 q 206 114 185 114 q 236 110 221 114 q 264 97 251 106 q 281 78 276 89 "},"y":{"ha":579,"x_min":13,"x_max":581,"o":"m 154 776 q 143 658 154 713 q 118 594 132 603 q 85 549 93 579 q 92 494 78 518 q 133 469 106 469 q 175 460 154 469 q 204 438 196 451 q 165 255 222 411 q 58 39 107 99 q 14 -40 14 -15 q 58 -64 14 -64 q 115 -22 76 -64 q 194 89 153 21 q 264 225 235 157 q 310 295 275 249 q 382 381 344 342 q 463 504 419 421 q 528 658 507 588 l 536 688 q 564 854 579 842 q 514 744 551 863 q 423 582 482 649 q 297 499 364 515 q 253 533 264 493 q 243 699 243 572 q 200 922 243 911 q 190 924 196 924 q 154 776 154 924 "},"z":{"ha":1040,"x_min":14,"x_max":1029,"o":"m 590 894 q 522 877 560 881 q 467 879 483 874 q 406 871 450 888 q 317 822 361 854 q 239 761 239 767 q 299 772 240 756 q 549 815 435 801 q 624 822 597 821 q 674 822 651 824 q 709 808 696 819 q 732 782 722 797 q 754 738 742 767 q 781 646 783 675 q 740 574 778 617 q 675 525 717 544 q 599 506 633 506 q 526 484 561 506 q 474 428 492 463 q 356 288 433 351 q 228 221 279 224 q 94 165 174 221 q 14 71 14 108 q 46 51 14 56 q 132 57 78 47 q 613 82 235 75 q 940 101 875 82 q 965 125 969 111 q 824 162 954 160 q 506 132 694 164 q 339 143 353 107 q 583 399 319 193 q 766 551 690 482 q 847 638 842 619 q 866 660 853 650 q 898 677 879 671 q 936 683 917 683 q 968 689 953 683 q 994 703 983 694 q 1014 722 1006 711 q 1025 747 1022 733 q 1027 773 1028 760 q 1019 799 1026 786 q 1000 822 1013 813 q 800 892 946 865 q 590 894 654 918 m 744 469 q 740 446 736 457 q 758 435 744 435 q 785 446 774 435 q 797 469 797 457 q 793 496 797 486 q 783 506 789 506 q 763 496 775 506 q 744 469 751 486 "},"{":{"ha":13,"x_min":0,"x_max":0,"o":""},"|":{"ha":13,"x_min":0,"x_max":0,"o":""},"}":{"ha":13,"x_min":0,"x_max":0,"o":""},"~":{"ha":13,"x_min":0,"x_max":0,"o":""},"¢":{"ha":13,"x_min":0,"x_max":0,"o":""},"£":{"ha":13,"x_min":0,"x_max":0,"o":""},"§":{"ha":13,"x_min":0,"x_max":0,"o":""},"¿":{"ha":13,"x_min":0,"x_max":0,"o":""},"À":{"ha":13,"x_min":0,"x_max":0,"o":""},"Á":{"ha":13,"x_min":0,"x_max":0,"o":""},"Â":{"ha":13,"x_min":0,"x_max":0,"o":""},"Ä":{"ha":13,"x_min":0,"x_max":0,"o":""},"Ç":{"ha":13,"x_min":0,"x_max":0,"o":""},"È":{"ha":13,"x_min":0,"x_max":0,"o":""},"É":{"ha":13,"x_min":0,"x_max":0,"o":""},"Ê":{"ha":13,"x_min":0,"x_max":0,"o":""},"Ë":{"ha":13,"x_min":0,"x_max":0,"o":""},"Î":{"ha":13,"x_min":0,"x_max":0,"o":""},"Ï":{"ha":13,"x_min":0,"x_max":0,"o":""},"Ñ":{"ha":13,"x_min":0,"x_max":0,"o":""},"Ó":{"ha":13,"x_min":0,"x_max":0,"o":""},"Ô":{"ha":13,"x_min":0,"x_max":0,"o":""},"Ö":{"ha":13,"x_min":0,"x_max":0,"o":""},"Ù":{"ha":13,"x_min":0,"x_max":0,"o":""},"Ú":{"ha":13,"x_min":0,"x_max":0,"o":""},"Û":{"ha":13,"x_min":0,"x_max":0,"o":""},"Ü":{"ha":13,"x_min":0,"x_max":0,"o":""},"ß":{"ha":13,"x_min":0,"x_max":0,"o":""},"à":{"ha":13,"x_min":0,"x_max":0,"o":""},"á":{"ha":13,"x_min":0,"x_max":0,"o":""},"â":{"ha":13,"x_min":0,"x_max":0,"o":""},"ä":{"ha":13,"x_min":0,"x_max":0,"o":""},"ç":{"ha":13,"x_min":0,"x_max":0,"o":""},"è":{"ha":13,"x_min":0,"x_max":0,"o":""},"é":{"ha":13,"x_min":0,"x_max":0,"o":""},"ê":{"ha":13,"x_min":0,"x_max":0,"o":""},"ë":{"ha":13,"x_min":0,"x_max":0,"o":""},"î":{"ha":13,"x_min":0,"x_max":0,"o":""},"ï":{"ha":13,"x_min":0,"x_max":0,"o":""},"ó":{"ha":13,"x_min":0,"x_max":0,"o":""},"ô":{"ha":13,"x_min":0,"x_max":0,"o":""},"ö":{"ha":13,"x_min":0,"x_max":0,"o":""},"ù":{"ha":13,"x_min":0,"x_max":0,"o":""},"ú":{"ha":13,"x_min":0,"x_max":0,"o":""},"û":{"ha":13,"x_min":0,"x_max":0,"o":""},"ü":{"ha":13,"x_min":0,"x_max":0,"o":""},"ę":{"ha":13,"x_min":0,"x_max":0,"o":""},"’":{"ha":13,"x_min":0,"x_max":0,"o":""},"“":{"ha":13,"x_min":0,"x_max":0,"o":""},"”":{"ha":13,"x_min":0,"x_max":0,"o":""},"•":{"ha":13,"x_min":0,"x_max":0,"o":""},"€":{"ha":13,"x_min":0,"x_max":0,"o":""}}}
